# xmcd
#
# Track frame offsets: 
#        150
#        26270
#        44975
#        61448
#        81255
#        103560
#        128050
#        147818
#
# Disc length: 2219 seconds
#
# Revision: 1
# Processed by: cddbd v1.5.2PL0 Copyright (c) Steve Scherf et al.
# Submitted via: ExactAudioCopy v0.99pb5
#
DISCID=6b08a908
DTITLE=Luis Enrique - Brillantes
DYEAR=1994
DGENRE=Salsa
TTITLE0=Amor de medianoche
TTITLE1=Ya lo se
TTITLE2=Ya veras
TTITLE3=Llego el amor
TTITLE4=Hasta cuando
TTITLE5=Comprendelo
TTITLE6=Yo no puedo ser tu amante
TTITLE7=San Juan si ti
EXTD=YEAR: 1994
EXTT0=
EXTT1=
EXTT2=
EXTT3=
EXTT4=
EXTT5=
EXTT6=
EXTT7=
PLAYORDER=
